<svg width="76" height="24" viewBox="0 0 76 24" fill="none" xmlns="http://www.w3.org/2000/svg">
<path d="M11.448 9.04972C11.3029 9.04921 11.0798 9.02774 10.8811 8.89842C10.4311 8.60592 10.4357 7.96536 10.4185 7.393C10.4066 6.99139 10.4618 6.6999 10.5709 6.12653C10.7388 5.24375 10.8964 4.98156 10.8615 4.37005C10.8444 4.0677 10.7881 3.82067 10.7124 3.60598C10.593 3.26726 10.4346 3.03614 10.3859 2.96769C10.3394 2.90202 10.1589 2.65347 9.83867 2.40013C9.46669 2.10561 9.11784 1.9725 9.02913 1.93992C8.94178 1.90784 8.72164 1.83181 8.42585 1.78837C8.30829 1.77119 8.14013 1.75351 7.93985 1.75553C7.79971 1.75704 7.69059 1.76765 7.63807 1.77346C7.61794 1.77574 7.46936 1.79241 7.30636 1.82928C6.85438 1.93108 6.48322 2.14325 6.46498 2.15386C6.3926 2.19604 6.16022 2.33496 5.91286 2.57568C5.85381 2.63301 5.63286 2.85276 5.44999 3.16319C5.10522 3.74793 5.08917 4.32635 5.084 4.5115C5.05107 5.69234 5.84592 6.52385 6.26716 7.76102C6.51696 8.49453 6.44049 9.37883 6.38716 11.1217C6.36158 11.9595 6.30416 12.6599 6.25355 13.1621C6.53029 12.6099 6.97003 11.9014 7.66855 11.202C9.04028 9.82869 10.6275 9.27452 11.4482 9.04946L11.448 9.04972Z" fill="black"/>
<g filter="url(#filter0_d_808_12087)">
<path d="M14.8234 11.6966C18.2855 10.9772 19.8668 9.30936 20.1384 8.86633C20.2975 8.60616 20.3958 8.33211 20.3958 8.33211C20.4385 8.21263 20.525 7.94489 20.5506 7.59102C20.5577 7.49301 20.5784 7.13788 20.488 6.76456C20.4556 6.63094 20.4124 6.50818 20.4064 6.491C20.4064 6.491 20.3465 6.32253 20.2657 6.16289C19.9264 5.49177 19.279 5.05101 19.279 5.05101C19.0366 4.88607 18.8151 4.78605 18.6899 4.73502C18.5198 4.66531 18.3742 4.62262 18.2782 4.59737C18.1095 4.55316 17.8088 4.48901 17.4275 4.48926C17.147 4.48926 16.9171 4.52412 16.7647 4.55468C16.5228 4.60317 15.9962 4.73629 15.4914 5.10582C15.2718 5.26647 15.114 5.42964 15.0307 5.52158C14.966 5.59331 14.8759 5.69965 14.7815 5.83731C14.6735 5.99493 14.6003 6.13435 14.5535 6.23286C14.4509 6.44857 14.4022 6.62083 14.391 6.66125C14.376 6.7153 14.3662 6.76051 14.3532 6.81987C14.3107 7.01108 14.2898 7.15177 14.2862 7.17349C14.2272 7.53343 13.5679 8.08457 13.4628 8.17146C13.1801 8.4051 13.0117 8.52053 12.7379 8.68724C12.4386 8.86936 11.9999 9.10477 11.4239 9.31062C10.8385 9.50789 10.0935 9.8206 9.31007 10.3227C9.05183 10.4884 8.03984 11.1277 7.2039 12.1851C5.86727 13.8761 5.68822 15.7213 5.66699 16.572C5.92577 16.1383 6.33259 15.5427 6.94376 14.9236C7.28363 14.5793 8.50679 13.397 10.4878 12.6743C11.2649 12.3909 11.9771 12.2442 13.2413 11.984C14.163 11.7943 14.2283 11.8203 14.8237 11.6966H14.8234Z" fill="black"/>
</g>
<path d="M21.6423 18.4843C21.5735 18.3406 21.4156 18.045 21.1185 17.7452C20.9435 17.5689 20.7805 17.4517 20.6959 17.3944C20.4948 17.2582 20.3119 17.1713 20.1873 17.1191C20.0077 17.0438 19.864 17.0044 19.7685 16.9786C19.5326 16.915 19.4327 16.9119 19.1908 16.8624C19.1908 16.8624 18.9519 16.8134 18.6088 16.7091C17.6822 16.427 16.8242 15.5914 16.4289 15.3108C16.4131 15.2997 16.3353 15.2446 16.2318 15.1666C16.1886 15.134 16.1494 15.1034 16.1108 15.0731C15.5962 14.6692 15.3132 14.4472 15.0952 14.0547C15.0133 13.9074 14.6495 13.3318 14.8503 12.6639C14.9594 12.3012 15.1954 12.0388 15.4283 11.8569C14.748 11.9625 12.8579 12.3432 11.3784 13.8771C10.6687 14.6126 10.2867 15.3719 10.0771 15.912C10.0891 15.9117 10.7071 15.693 11.1708 15.698C11.8056 15.7051 12.2609 15.9493 12.7934 16.238C13.4236 16.5798 13.8315 16.938 14.1341 17.207C14.4013 17.4444 14.8569 17.8569 15.2974 18.4934C15.6171 18.9556 15.997 19.6348 16.154 20.1019C16.1788 20.1754 16.2648 20.4426 16.4482 20.7717C16.4939 20.8535 16.5418 20.9394 16.6163 21.0453C16.6784 21.1332 16.8983 21.4322 17.3015 21.7098C17.5652 21.8912 17.803 21.992 17.9266 22.0394C18.273 22.1723 18.5644 22.2112 18.6839 22.2241C18.8191 22.2385 19.2842 22.2791 19.8504 22.1185C20.4088 21.9601 20.7705 21.6899 20.891 21.5944C21.3101 21.2622 21.5365 20.8871 21.6551 20.6348C21.8731 20.1711 21.8957 19.7629 21.8951 19.5674C21.8948 19.4088 21.8785 18.9773 21.6423 18.4848V18.4843Z" fill="black"/>
<path d="M11.2005 12.8347C11.2005 12.8347 11.087 12.8655 10.9713 12.9011C9.57648 13.3308 8.35849 14.1825 8.35849 14.1825C7.80283 14.571 6.58484 15.4424 5.75108 16.987C5.75108 16.987 5.0093 18.3608 5.05474 19.5712C5.061 19.7404 5.16141 20.2956 5.16168 20.2958C5.30998 20.7874 5.57475 21.1152 5.68006 21.2362C5.71571 21.2774 5.79408 21.3648 5.90646 21.4668C6.08334 21.627 6.62729 22.0781 7.4499 22.2079C7.75031 22.2554 8.00501 22.2468 8.13454 22.2382C8.34407 22.2246 8.50707 22.1928 8.59169 22.1741C8.74762 22.14 9.09864 22.0495 9.48342 21.8202C9.79744 21.6328 9.99363 21.4363 10.0886 21.3398C10.1923 21.2345 10.2584 21.1506 10.2823 21.12C10.2823 21.12 10.4111 20.9541 10.5139 20.7545C10.8448 20.1125 10.8102 19.4363 10.8102 19.4363C10.8032 19.2959 10.7716 18.92 10.5887 18.5298C10.4837 18.3055 10.3457 18.113 10.3025 18.0539C10.2339 17.9604 10.1702 17.8847 10.121 17.8291C10.0908 17.7927 10.05 17.7402 10.0072 17.6735C10.0072 17.6735 10.0072 17.6735 10.007 17.673C10.007 17.673 9.91254 17.4904 9.84478 17.3333C9.8105 17.2537 9.64886 16.749 9.73703 16.1221C9.87744 15.1236 10.5825 14.3035 10.9172 13.9218C11.2288 13.5667 11.7259 13.0772 12.4614 12.6162C12.1452 12.6415 11.7061 12.698 11.201 12.835L11.2005 12.8347Z" fill="black"/>
<path d="M26.3372 19V6.03158H29.9313V11.2931L34.3962 6.03158H38.6572L33.7477 11.608L38.824 19H34.5073L29.9313 12.1823V19H26.3372ZM44.7456 19.2408C43.6711 19.2408 42.72 19.0062 41.8925 18.5368C41.065 18.0552 40.4104 17.4191 39.9287 16.6286C39.4594 15.8258 39.2247 14.9489 39.2247 13.9979C39.2247 13.2815 39.3606 12.6084 39.6323 11.9785C39.9164 11.3363 40.3054 10.7743 40.7995 10.2926C41.3059 9.81095 41.8925 9.43425 42.5595 9.16253C43.2388 8.89081 43.9798 8.75495 44.7826 8.75495C45.8572 8.75495 46.8082 8.98961 47.6357 9.45895C48.4632 9.92828 49.1116 10.5582 49.5809 11.3486C50.0626 12.1267 50.3035 12.9975 50.3035 13.9608C50.3035 14.7142 50.1553 15.4182 49.8588 16.0728C49.5748 16.7151 49.1734 17.2709 48.6546 17.7402C48.1482 18.2095 47.5554 18.5801 46.8761 18.8518C46.2092 19.1112 45.499 19.2408 44.7456 19.2408ZM44.7826 16.2581C45.2149 16.2581 45.5854 16.1531 45.8942 15.9432C46.203 15.7332 46.4438 15.4553 46.6167 15.1095C46.7896 14.7636 46.8761 14.3931 46.8761 13.9979C46.8761 13.6027 46.7835 13.2321 46.5982 12.8863C46.4129 12.5405 46.1598 12.2626 45.8386 12.0526C45.5299 11.8427 45.1655 11.7377 44.7456 11.7377C44.3256 11.7377 43.9551 11.8427 43.634 12.0526C43.3252 12.2502 43.0844 12.5158 42.9115 12.8493C42.7386 13.1827 42.6521 13.5533 42.6521 13.9608C42.6521 14.3684 42.7447 14.7513 42.93 15.1095C43.1153 15.4553 43.3685 15.7332 43.6896 15.9432C44.0107 16.1531 44.3751 16.2581 44.7826 16.2581ZM52.994 22.0198C52.7099 22.0198 52.4505 22.0074 52.2159 21.9827C51.9812 21.958 51.7589 21.9272 51.5489 21.8901V19.4261C51.6848 19.4755 51.8083 19.5126 51.9195 19.5373C52.0306 19.562 52.1418 19.5743 52.2529 19.5743C52.4752 19.5743 52.6605 19.4879 52.8087 19.3149C52.9693 19.142 53.0496 18.8394 53.0496 18.4072V8.97726H56.5696V18.5554C56.5696 19.3952 56.4275 20.0684 56.1435 20.5747C55.8717 21.0935 55.4703 21.464 54.9392 21.6863C54.4082 21.9086 53.7597 22.0198 52.994 22.0198ZM54.791 8.12505C54.2352 8.12505 53.7659 7.97684 53.383 7.68042C53.0002 7.37165 52.8087 6.92084 52.8087 6.328C52.8087 5.73516 53.0002 5.29053 53.383 4.9941C53.7659 4.69768 54.2352 4.54947 54.791 4.54947C55.3468 4.54947 55.8162 4.69768 56.199 4.9941C56.5943 5.29053 56.7919 5.73516 56.7919 6.328C56.7919 6.92084 56.5943 7.37165 56.199 7.68042C55.8162 7.97684 55.3468 8.12505 54.791 8.12505ZM63.5795 19.2408C62.5049 19.2408 61.5539 19.0062 60.7264 18.5368C59.8989 18.0552 59.2443 17.4191 58.7626 16.6286C58.2933 15.8258 58.0586 14.9489 58.0586 13.9979C58.0586 13.2815 58.1945 12.6084 58.4662 11.9785C58.7503 11.3363 59.1393 10.7743 59.6334 10.2926C60.1397 9.81095 60.7264 9.43425 61.3934 9.16253C62.0727 8.89081 62.8137 8.75495 63.6165 8.75495C64.691 8.75495 65.6421 8.98961 66.4696 9.45895C67.2971 9.92828 67.9455 10.5582 68.4148 11.3486C68.8965 12.1267 69.1374 12.9975 69.1374 13.9608C69.1374 14.7142 68.9891 15.4182 68.6927 16.0728C68.4087 16.7151 68.0072 17.2709 67.4885 17.7402C66.9821 18.2095 66.3893 18.5801 65.71 18.8518C65.043 19.1112 64.3329 19.2408 63.5795 19.2408ZM63.6165 16.2581C64.0488 16.2581 64.4193 16.1531 64.7281 15.9432C65.0369 15.7332 65.2777 15.4553 65.4506 15.1095C65.6235 14.7636 65.71 14.3931 65.71 13.9979C65.71 13.6027 65.6174 13.2321 65.4321 12.8863C65.2468 12.5405 64.9936 12.2626 64.6725 12.0526C64.3637 11.8427 63.9994 11.7377 63.5795 11.7377C63.1595 11.7377 62.789 11.8427 62.4679 12.0526C62.1591 12.2502 61.9183 12.5158 61.7454 12.8493C61.5724 13.1827 61.486 13.5533 61.486 13.9608C61.486 14.3684 61.5786 14.7513 61.7639 15.1095C61.9491 15.4553 62.2023 15.7332 62.5235 15.9432C62.8446 16.1531 63.2089 16.2581 63.6165 16.2581Z" fill="black"/>
<defs>
<filter id="filter0_d_808_12087" x="5.29327" y="4.26502" width="15.3889" height="12.5808" filterUnits="userSpaceOnUse" color-interpolation-filters="sRGB">
<feFlood flood-opacity="0" result="BackgroundImageFix"/>
<feColorMatrix in="SourceAlpha" type="matrix" values="0 0 0 0 0 0 0 0 0 0 0 0 0 0 0 0 0 0 127 0" result="hardAlpha"/>
<feOffset dx="-0.124574" dy="0.0249149"/>
<feGaussianBlur stdDeviation="0.124574"/>
<feColorMatrix type="matrix" values="0 0 0 0 0.0941176 0 0 0 0 0.545098 0 0 0 0 0.509804 0 0 0 0.33 0"/>
<feBlend mode="normal" in2="BackgroundImageFix" result="effect1_dropShadow_808_12087"/>
<feBlend mode="normal" in="SourceGraphic" in2="effect1_dropShadow_808_12087" result="shape"/>
</filter>
</defs>
</svg>
